<svg id="Capa_1" enable-background="new 0 0 512 512" height="512" viewBox="0 0 512 512" width="512" xmlns="http://www.w3.org/2000/svg"><g><path d="m321.905 166.282c-8.679 0-15.714 7.036-15.714 15.714v-47.143c0-8.679-7.036-15.714-15.714-15.714-8.679 0-15.714 7.036-15.714 15.714v-15.714c0-8.679-7.036-15.714-15.714-15.714-8.679 0-15.714 7.036-15.714 15.714v31.429-.031c-.017-8.667-7.047-15.684-15.714-15.684-8.679 0-15.714 7.036-15.714 15.714v76.542c-1.057-16.422-14.703-29.417-31.392-29.417-3.387 0-6.132 2.745-6.132 6.132v88.163.009 48.189c0 9.392 3.731 18.4 10.372 25.041l21.057 21.057v41.429h100.382v-41.429l21.057-21.057c6.641-6.641 10.372-15.649 10.372-25.041v-158.19c-.003-8.678-7.039-15.713-15.718-15.713z" fill="#ffcebf"/><g fill="#ffb09e"><path d="m266.634 105.388c-1.295.708-8.125 4.543-8.125 13.75v141.429c0 9.359-15.106 10.624-15.106 0l-.071-141.429c0-4.341 1.761-8.266 4.604-11.11 2.843-2.843 6.769-4.604 11.11-4.604 2.752.001 5.342.71 7.588 1.964z"/><path d="m298.061 121.101c-1.295.708-8.125 4.543-8.125 13.75v125.716c0 9.359-15.106 10.624-15.106 0l-.061-126.02c.071-4.219 1.821-8.034 4.594-10.806 2.843-2.843 6.769-4.604 11.11-4.604 2.742 0 5.322.698 7.558 1.943.009.011.019.011.03.021z"/><path d="m329.487 168.231v.01c-1.295.708-8.125 4.543-8.125 13.75v78.576c0 9.359-15.106 10.624-15.106 0l-.03-79.477c.222-3.976 1.932-7.568 4.573-10.209 2.843-2.843 6.769-4.604 11.11-4.604 2.742.001 5.332.71 7.578 1.954z"/><path d="m199.926 365.228 21.055 21.056v41.427h-15.177v-41.427l-21.055-21.056c-6.637-6.647-10.371-15.652-10.371-25.042v-136.36c0-3.386 2.745-6.131 6.131-6.131 3.147 0 6.182.466 9.046 1.325v141.166c0 9.39 3.734 18.395 10.371 25.042z"/><path d="m227.619 134.852c2.752 0 5.342.708 7.588 1.963-1.295.708-8.125 4.677-8.125 13.75v110.003c0 9.359-15.104 10.624-15.104 0l-.073-110.003c0-4.341 1.761-8.266 4.604-11.11 2.844-2.843 6.769-4.603 11.11-4.603z"/></g><g><path d="m274.859 393.871c-4.191 0-7.588-3.398-7.588-7.589v-27.832c0-18.711-10.398-35.531-27.135-43.897l-31.551-15.769c-3.749-1.873-5.268-6.431-3.395-10.18 1.874-3.749 6.43-5.27 10.181-3.395l31.551 15.769c21.913 10.952 35.526 32.974 35.526 57.472v27.832c-.001 4.192-3.398 7.589-7.589 7.589z" fill="#ffb09e"/></g><g><g><path d="m256 78.035c-4.191 0-7.589-3.398-7.589-7.588v-62.859c0-4.19 3.398-7.588 7.589-7.588s7.589 3.398 7.589 7.588v62.858c0 4.191-3.398 7.589-7.589 7.589z" fill="#ffe177"/></g><g><path d="m334.565 99.089c-1.287 0-2.592-.328-3.787-1.018-3.629-2.095-4.873-6.737-2.777-10.366l31.429-54.436c2.095-3.63 6.735-4.874 10.366-2.778 3.629 2.095 4.873 6.736 2.777 10.366l-31.429 54.436c-1.406 2.435-3.957 3.796-6.579 3.796z" fill="#ffe177"/></g><g><path d="m392.098 156.608c-2.622 0-5.173-1.361-6.579-3.796-2.096-3.629-.852-8.27 2.777-10.366l54.436-31.429c3.628-2.096 8.269-.852 10.366 2.778 2.096 3.629.852 8.27-2.777 10.366l-54.436 31.429c-1.194.69-2.5 1.018-3.787 1.018z" fill="#ffe177"/></g><g><path d="m65.48 345.181c-2.622 0-5.173-1.361-6.579-3.796-2.096-3.629-.852-8.27 2.778-10.366l54.436-31.429c3.627-2.095 8.269-.853 10.366 2.777 2.096 3.629.852 8.27-2.778 10.366l-54.436 31.429c-1.194.691-2.499 1.019-3.787 1.019z" fill="#ffe177"/></g><g><g><path d="m476.001 235.178h-62.857c-4.191 0-7.589-3.398-7.589-7.589s3.397-7.588 7.589-7.588h62.857c4.191 0 7.589 3.398 7.589 7.588s-3.397 7.589-7.589 7.589z" fill="#ffe177"/></g><g><path d="m98.856 235.178h-62.857c-4.191 0-7.588-3.398-7.588-7.589s3.397-7.588 7.588-7.588h62.857c4.191 0 7.588 3.398 7.588 7.588s-3.397 7.589-7.588 7.589z" fill="#ffe177"/></g></g><g><path d="m177.435 99.089c-2.622 0-5.173-1.361-6.579-3.796l-31.429-54.436c-2.096-3.63-.852-8.271 2.777-10.366 3.627-2.096 8.269-.853 10.366 2.778l31.43 54.436c2.096 3.629.852 8.271-2.778 10.366-1.194.69-2.499 1.018-3.787 1.018z" fill="#ffe177"/></g><g><path d="m119.902 156.608c-1.287 0-2.593-.328-3.787-1.018l-54.436-31.429c-3.629-2.096-4.873-6.737-2.778-10.366 2.094-3.631 6.738-4.874 10.366-2.778l54.436 31.429c3.629 2.096 4.873 6.737 2.778 10.366-1.405 2.435-3.956 3.796-6.579 3.796z" fill="#ffe177"/></g><g><path d="m446.52 345.181c-1.287 0-2.593-.328-3.787-1.018l-54.436-31.429c-3.629-2.096-4.873-6.737-2.777-10.366 2.095-3.63 6.737-4.873 10.366-2.777l54.436 31.429c3.629 2.096 4.873 6.737 2.777 10.366-1.406 2.434-3.957 3.795-6.579 3.795z" fill="#ffe177"/></g></g><path d="m315.405 417.712h-118.31c-3.866 0-7 3.134-7 7v34.429h132.31v-34.429c0-3.866-3.134-7-7-7z" fill="#eaf6ff"/><path d="m210.327 417.711v41.426h-20.236v-34.426c0-3.866 3.134-7 7-7z" fill="#d8ecfe"/><path d="m337.62 511.998h-162.74v-55.858c0-3.866 3.134-7 7-7h148.74c3.866 0 7 3.134 7 7z" fill="#8ac9fe"/><path d="m195.12 449.137v62.863h-20.236v-55.863c0-3.866 3.134-7 7-7z" fill="#60b7ff"/><g><g><path d="m298.085 488.158h-15.715c-4.191 0-7.589-3.398-7.589-7.589s3.397-7.588 7.589-7.588h15.715c4.191 0 7.588 3.398 7.588 7.588 0 4.191-3.397 7.589-7.588 7.589z" fill="#68748f"/></g></g></g></svg>